<svg xmlns="http://www.w3.org/2000/svg" viewBox="0 0 1600 1200" preserveAspectRatio="xMidYMid slice">
  <defs>
    <linearGradient id="bg" x1="0" y1="0" x2="0" y2="1">
      <stop offset="0%" stop-color="#f7f8f4" />
      <stop offset="100%" stop-color="#f3f6f1" />
    </linearGradient>
    <style>
      .world { fill: none; stroke: #5e7a70; stroke-width: 10; opacity: 0.12; }
      .hand { fill: #5e7a70; opacity: 0.08; }
    </style>
  </defs>
  <rect width="1600" height="1200" fill="url(#bg)" />
  <path class="world" d="M220 320c120-30 260-20 320 40s80 170 40 240c-36 58-90 70-150 68-48-2-110-24-126-78-20-67-18-166 2-270z" />
  <path class="world" d="M760 240c100 10 190 40 240 120s50 190 8 250c-45 72-130 98-210 92-60-4-120-32-142-86-29-72-14-170 18-276z" />
  <path class="world" d="M1140 360c80 50 132 120 140 190 10 90-40 170-110 220-62 42-148 58-220 40-72-18-112-72-126-130-15-64 2-146 40-228 45-95 111-128 216-92z" />
  <path class="hand" d="M520 860c0-38 14-59 30-72 17-14 40-18 58-7 16 9 25 26 25 51v102h-39v-92c0-5-2-10-6-13-4-3-9-3-14-1-7 3-14 10-14 27v79h-40v-73z" />
  <path class="hand" d="M680 760c12-34 36-49 62-44 17 3 30 13 38 28 6 10 10 24 10 44v121h-44v-94c0-7-3-12-8-14-5-3-11-2-16 1-8 4-15 15-15 36v70h-40v-95z" />
  <path class="hand" d="M980 900c0-32 10-51 24-61 14-10 31-12 46-4 15 9 24 25 24 50v97h-46v-87c0-5-2-10-6-13-4-3-9-3-13-1-7 2-12 9-12 26v78h-37v-89z" />
  <path class="hand" d="M1260 820c8-38 30-59 52-60 18-1 34 6 44 19 10 12 16 28 16 50v110h-43v-99c0-7-3-12-9-15-4-3-10-3-15-1-7 3-14 10-14 28v71h-37v-93z" />
</svg>
